# xmcd
#
# Track frame offsets:
#	150
#	17827
#	37820
#	53446
#	69519
#	86313
#	102437
#	119956
#	139761
#	156770
#	174206
#	190706
#	215021
#	236777
#
# Disc length: 3437 seconds
#
# Revision: 0
# Processed by: cddbd v1.5.2PL0 Copyright (c) Steve Scherf et al.
# Submitted via: EasyCDDAExtractor 10.5.1.1
#
DISCID=b90d6b0e
DTITLE=LeAnn Rimes - Family
DYEAR=2007
DGENRE=Country
TTITLE0=Family
TTITLE1=Nothin' Better To Do
TTITLE2=Fight
TTITLE3=Good Friend And A Glass Of Wine
TTITLE4=Something I Can Feel
TTITLE5=I Want You With Me
TTITLE6=Doesn't Everybody
TTITLE7=Nothing Wrong - Duet With Marc Broussard
TTITLE8=Pretty Things
TTITLE9=Upper Hand
TTITLE10=One Day Too Long
TTITLE11=What I Cannot Change
TTITLE12=Till We Ain't Strangers Anymore (Duet With Bon Jovi) (Bonus Track)
TTITLE13=When You Love Someone Like That (Duet With Reba McEntire) (Bonus Trac
TTITLE13=k)
EXTD=
EXTT0=
EXTT1=
EXTT2=
EXTT3=
EXTT4=
EXTT5=
EXTT6=
EXTT7=
EXTT8=
EXTT9=
EXTT10=
EXTT11=
EXTT12=
EXTT13=
PLAYORDER=
